<svg xmlns="http://www.w3.org/2000/svg" width="148.858" height="159.106" viewBox="0 0 148.858 159.106"><defs><style>.a{fill:#ddf5fd;}</style></defs><g transform="translate(-1188.142 -612.25)"><ellipse class="a" cx="74.429" cy="74.429" rx="74.429" ry="74.429" transform="translate(1188.142 622.498)"/><g transform="translate(1213.566 612.25)"><path d="M1240.605,792.364a48.269,48.269,0,0,1-10.241,1.618,74.18,74.18,0,0,1-11.451-.142c-2.264-.186-4.524-.447-6.777-.731-.529-.067-.634.8-.125.924a58.79,58.79,0,0,0,12,1.569,50.762,50.762,0,0,0,11.255-.809,43.576,43.576,0,0,0,5.59-1.538C1241.408,793.065,1241.181,792.193,1240.605,792.364Z" transform="translate(-1182.112 -702.286)"/><path d="M1303.549,745.3c-.516-.832-1.153-1.6-1.743-2.38-.652-.862-1.3-1.727-1.976-2.572s-1.39-1.65-2.109-2.462c-.764-.864-1.581-1.669-2.288-2.58-.738-.951-1.479-1.894-2.249-2.819-.273-.328-.831.1-.593.458.577.864,1.17,1.713,1.776,2.557.275.382.571.756.827,1.151.281.433.5.907.767,1.349,1.051,1.739,2.158,3.425,3.363,5.061.573.777,1.153,1.55,1.714,2.336a26.441,26.441,0,0,1,1.607,2.4,8.233,8.233,0,0,1,.976,4.358,9.324,9.324,0,0,1-1.683,4.87.779.779,0,0,0,.277,1.057.789.789,0,0,0,1.057-.277,11.354,11.354,0,0,0,1.452-9.841A11.979,11.979,0,0,0,1303.549,745.3Z" transform="translate(-1239.796 -659.501)"/><path d="M1193.858,752.217a5.346,5.346,0,0,1,.706-3.95c.793-1.362,1.709-2.657,2.607-3.951.916-1.321,1.86-2.623,2.8-3.928.543-.755,1.1-1.506,1.592-2.3.215-.349.429-.695.646-1.039a2.4,2.4,0,0,0,2.372,1.158,2.474,2.474,0,0,1,1.138.036,2.8,2.8,0,0,1,.9.677,17.826,17.826,0,0,0,1.924,1.9,5.943,5.943,0,0,0,5.282.962,7.788,7.788,0,0,0,2.384-1.493,2.948,2.948,0,0,1,2.15-.931c.6.07,1.175.317,1.777.4a2.958,2.958,0,0,0,1.776-.21,1.732,1.732,0,0,0,.634-2.622c-.447-.56-1.369.166-.989.763a.42.42,0,0,1-.062.492,1,1,0,0,1-.884.272c-.94-.048-1.791-.555-2.755-.478a4.625,4.625,0,0,0-2.221.87,14.514,14.514,0,0,1-1.939,1.3,4.209,4.209,0,0,1-3.949-.454c-1.28-.812-1.946-2.341-3.38-2.951a3.044,3.044,0,0,0-1.474-.224c-.372.031-.855.164-1.166-.05a1.291,1.291,0,0,1-.465-.8,2.762,2.762,0,0,1,.2-1.549.437.437,0,0,0-.754-.441,4.479,4.479,0,0,0-.756,1.431,2.959,2.959,0,0,0-.026,1.246c-.869,1-1.773,1.971-2.6,3.011-1.06,1.33-2.125,2.656-3.165,4-1.017,1.316-2.017,2.659-2.9,4.068a8.148,8.148,0,0,0-1.015,2.163,5.8,5.8,0,0,0-.087,2.439,9.227,9.227,0,0,0,.869,2.631,5.771,5.771,0,0,0,1.593,2.23.489.489,0,0,0,.733-.42,7.767,7.767,0,0,0-.809-2.24A11.679,11.679,0,0,1,1193.858,752.217Z" transform="translate(-1168.122 -660.281)"/><path d="M1248.921,811.364c.214-.091.014-.006-.037.009s-.125.04-.19.055c-.155.038-.312.064-.469.091-.428.073-.653.1-1.085.15-1.059.121-2.127.185-3.191.239a70.881,70.881,0,0,1-7.146.1,13.433,13.433,0,0,1-2.714-.319.269.269,0,0,0-.143.518,12.889,12.889,0,0,0,2.429.4c1.142.112,2.291.174,3.438.22a68.9,68.9,0,0,0,7.132-.057c.462-.029.925-.06,1.385-.114.213-.025.426-.052.637-.087l.075-.013.018,0c.113-.014.227-.029.34-.05a.621.621,0,0,0,.4-.839A.627.627,0,0,0,1248.921,811.364Z" transform="translate(-1197.862 -715.807)"/><path d="M1251,701.41c.624-.114.746-1.064.879-1.58a15.878,15.878,0,0,0,.342-1.752,26.561,26.561,0,0,0,.2-3.515c.007-1.171-.056-2.339-.07-3.509a27.686,27.686,0,0,1,.089-3.6c.024-.2-.3-.237-.346-.047a22.955,22.955,0,0,0-.617,3.389c-.113,1.189-.189,2.382-.246,3.574a34.076,34.076,0,0,1-.314,3.415,16.767,16.767,0,0,1-.333,1.689c-.074.289-.16.575-.252.86a.852.852,0,0,0,.129.935A.559.559,0,0,0,1251,701.41Z" transform="translate(-1209.633 -627.334)"/><path d="M1310.568,670.788c-2.481-.794-4.286-2.927-6.826-3.612-3.012-.812-5.971.912-8.384,2.516a31.257,31.257,0,0,1-3.118,1.925c-.029.014-.059.023-.087.038s-.062.034-.093.052a10.72,10.72,0,0,1-1.076.458c-.573.2-.34,1.11.254.923a11.308,11.308,0,0,0,1.356-.532c.2-.049.407-.1.607-.147a9.116,9.116,0,0,1,1.573-.242,26.669,26.669,0,0,1,3.592.085,23.534,23.534,0,0,0,6.208-.411c.532-.107,1.062-.23,1.583-.382a6.52,6.52,0,0,0,1.493-.564l.011-.008a11.368,11.368,0,0,0,2.535,1.245C1311.053,672.408,1311.421,671.061,1310.568,670.788Zm-15.113.143c.455-.287.91-.574,1.37-.85a2.583,2.583,0,0,0,.045.3,1.655,1.655,0,0,0,.2.5C1296.531,670.877,1295.992,670.893,1295.455,670.931Zm10.413-.919c-.446.137-.9.252-1.355.353-.078.018-.158.032-.236.049a1.956,1.956,0,0,0,.139-.875,1.869,1.869,0,0,0-.182-.615.629.629,0,0,0-.025-.073c-.006-.017-.015-.034-.021-.051a12.979,12.979,0,0,1,1.981,1.11C1306.069,669.947,1305.969,669.981,1305.868,670.012Z" transform="translate(-1238.456 -612.842)"/><path d="M1296.425,664.453c.689-.461,1.384-.9,2.066-1.374q1-.69,2.049-1.308a11.678,11.678,0,0,1,4.323-1.73,5.135,5.135,0,0,1,2.948.56,24.832,24.832,0,0,1,3.109,1.775q.815.53,1.6,1.1.329.238.655.481a2.674,2.674,0,0,0,.721.471.64.64,0,0,0,.715-.93,5.029,5.029,0,0,0-1.293-1.052q-.7-.508-1.417-.987a22.034,22.034,0,0,0-3.337-1.881,6.732,6.732,0,0,0-3.215-.736,10.969,10.969,0,0,0-4.7,1.716c-.8.482-1.584,1.005-2.343,1.556-.383.279-.774.557-1.138.862-.381.319-.722.7-1.07,1.055C1295.893,664.242,1296.165,664.628,1296.425,664.453Z" transform="translate(-1242.288 -607.035)"/><path d="M1203.559,536.579a5.657,5.657,0,0,0-3.385-1.283,36.765,36.765,0,0,0-.133-13.038,35.813,35.813,0,0,0-1.981-6.721c-.88-2.173-1.95-4.258-3.021-6.341-.606-1.177-1.2-2.361-1.788-3.545-.29-.58-.571-1.164-.837-1.755-.133-.295-.264-.589-.406-.88a3.363,3.363,0,0,0-.266-.445.64.64,0,0,0-.009-.762s0-.008,0-.012c-.341-4.03-2.96-7.313-5.837-9.951a53.078,53.078,0,0,0-10.348-7.431,43.438,43.438,0,0,0-5.7-2.631,5.328,5.328,0,0,0-.853-.357q-.979-.377-1.985-.678a39.861,39.861,0,0,0-4.256-.985c-1.523-.28-3.059-.477-4.589-.718-1.573-.248-3.141-.4-4.729-.509-3.051-.208-6.129-.44-9.187-.443a20.586,20.586,0,0,0-5.454.627,18.812,18.812,0,0,0-4.856,2.213,40.541,40.541,0,0,0-12.948,13.333,62.488,62.488,0,0,0-7.469,18.517,57.532,57.532,0,0,0-1.522,10.5c-.078,1.744-.172,3.481-.158,5.228q.011,1.308.073,2.615c.042.879.145,1.739.258,2.611.088.678.185,1.352.307,2.023a3.886,3.886,0,0,0-1.931.543,4.718,4.718,0,0,0-1.957,3.787,18.413,18.413,0,0,0,.22,5.032,65.966,65.966,0,0,0,2.807,9.867c.531,1.616,1.03,3.247,1.7,4.811.322.749.739,1.453,1.058,2.2a8.869,8.869,0,0,1,.528,1.982c.28,1.626.464,3.278,1.54,4.607a4.782,4.782,0,0,0,2.057,1.432,4.847,4.847,0,0,0,1.191.265,2.184,2.184,0,0,0,.391.014,49.613,49.613,0,0,0,1.6,4.795,37.11,37.11,0,0,0,1.683,3.643c.317.857.64,1.712.952,2.57q1.611,4.43,3.123,8.9a138.459,138.459,0,0,1,4.956,18.165c.66,3.428,1.086,6.885,1.42,10.359a.888.888,0,0,0,.865.865.874.874,0,0,0,.865-.865,70.925,70.925,0,0,0-1.084-9.547c-.539-3.121-1.232-6.214-2.04-9.275a147.814,147.814,0,0,0-5.019-15.26q.949,1.089,1.99,2.1c.179.173.365.339.547.509.115.123.234.244.358.362.5.476,1.017.927,1.552,1.363a46.324,46.324,0,0,0,6.146,4.283,29.867,29.867,0,0,0,8.8,3.453,1.844,1.844,0,0,0,.577.158c.209.023.419.041.629.06a8.673,8.673,0,0,0,1.219.133,3.229,3.229,0,0,0,.425-.027q1.614.067,3.229.014a51.07,51.07,0,0,0,5.573-.5,43.376,43.376,0,0,0,6.256-1.383,46.46,46.46,0,0,0,14.02-7.029,43,43,0,0,0,6.847-6.427,48.93,48.93,0,0,0,5.978-8.834c.185-.349.363-.7.541-1.054a3.073,3.073,0,0,0,.585.114c-.811,3.3-1.253,6.678-2.243,9.941a26.935,26.935,0,0,0-1.278,4.221.957.957,0,0,0-.047.106c-.179.506-.222,1.042-.43,1.546a10.646,10.646,0,0,1-.766,1.443c-.606,1-1.253,1.98-1.913,2.946-1.315,1.923-2.63,3.851-4.045,5.7-.82,1.072-1.682,2.11-2.556,3.138a.2.2,0,0,0,.285.285c1.763-1.66,3.44-3.42,5.034-5.243a52.874,52.874,0,0,0,4.412-5.9q.15-.229.295-.463c.026.248.049.5.075.746a1.761,1.761,0,0,0-.141.163c-1.708,2.256-3.327,4.579-5.049,6.827-.192.25-.293.382-.522.674-.255.327-.516.649-.764.981-.4.54-.8,1.082-1.212,1.619-.838,1.1-1.588,2.251-2.474,3.316-1.035,1.245-2.087,2.474-3.129,3.713a.4.4,0,0,0,.558.558c2.111-1.918,4.081-3.98,6.167-5.925a34.528,34.528,0,0,0,2.877-3.134c.941-1.127,1.861-2.268,2.739-3.446.434-.582.867-1.166,1.291-1.757.192,2.2.367,4.4.566,6.592.084.921.168,1.843.261,2.763.032.314.064.628.1.941a1.48,1.48,0,0,0,.347.953c.055.058.116.111.175.164a.816.816,0,0,0,1.266-.163c.03-.055.063-.109.093-.164a1.349,1.349,0,0,0,.153-.432.848.848,0,0,0,.017-.189v0c0-.038-.008-.079-.018-.144-.032-.256-.063-.513-.092-.77-.088-.775-.168-1.552-.248-2.328-.207-2.024-.4-4.049-.6-6.074q-.183-1.847-.385-3.693a1.219,1.219,0,0,0-.093-.834c-.026-.228-.049-.457-.076-.685-.066-.556-.137-1.109-.237-1.66a6.2,6.2,0,0,1-.073-2.413,25.979,25.979,0,0,1,.781-2.484,36.654,36.654,0,0,0,1.308-5.819,32.589,32.589,0,0,0,.38-5.622,5.714,5.714,0,0,0,2.661-1.086,8.85,8.85,0,0,0,2.9-4.272c.3-.813.5-1.66.748-2.489a23.586,23.586,0,0,1,.838-2.333c.713-1.7,1.648-3.295,2.455-4.951a32.081,32.081,0,0,0,2.992-10.528C1206.417,543,1206.4,538.827,1203.559,536.579Zm-10.342-27.824c1.033,2.057,2.109,4.094,3.026,6.206a35.689,35.689,0,0,1,2.906,13.243,35.121,35.121,0,0,1-.575,7.376l-.018.006a6.161,6.161,0,0,0-2.166,1.478c-.023.023-.043.049-.065.073a33.7,33.7,0,0,0-3.558-3.558c-.048-2.211-.016-4.425-.233-6.627a21.161,21.161,0,0,0-.767-4.1,32.73,32.73,0,0,0-1.555-4.058c-1.163-2.55-2.605-4.994-3.309-7.728a15.856,15.856,0,0,1-.532-4.929,17.789,17.789,0,0,1,.941-4.536q.654.231,1.311.457c.051.018.1.033.153.05,0,.008,0,.015,0,.023a15.3,15.3,0,0,1-.254,1.981,10.313,10.313,0,0,0-.041,1.906,16.111,16.111,0,0,0,.686,3.887,12.33,12.33,0,0,0,.811,2.089c.161.307.339.607.523.9a3.056,3.056,0,0,0,.315.467,3.754,3.754,0,0,0,.478.368.305.305,0,0,0,.505-.294,3.861,3.861,0,0,0-.278-.923c-.148-.293-.288-.591-.416-.894-.251-.6-.518-1.18-.73-1.792a15.782,15.782,0,0,1-.813-3.748c-.112-1.245-.031-2.487-.056-3.731.121.039.24.081.361.118.3.093.625.225.948.3a4.934,4.934,0,0,0,.3,1.256c.2.532.414,1.059.635,1.583C1192.2,506.677,1192.7,507.719,1193.217,508.755Zm1.448,30.756a8.022,8.022,0,0,0-.506,1.334c-.075.268-.137.54-.194.813a17.23,17.23,0,0,1-.953-4.1c.621.508,1.265.983,1.881,1.5C1194.808,539.214,1194.733,539.371,1194.665,539.511ZM1184,531.171a.816.816,0,0,0-.492.378.872.872,0,0,0-.1.356.6.6,0,0,0-.087.192,7.809,7.809,0,0,0-.251.879c-.035.28-.065.56-.1.841-.069.558-.105,1.119-.158,1.679-.1,1.035-.213,2.069-.353,3.1a26.194,26.194,0,0,1-.5,2.968,2.916,2.916,0,0,1-1.161,1.818,7.433,7.433,0,0,1-2.43.9,25.616,25.616,0,0,1-2.936.531,38.782,38.782,0,0,1-6.231.142c-1.179-.051-2.357-.123-3.534-.192-.6-.036-1.205-.07-1.8-.137-.353-.04-.7-.137-1.033-.154-.084-.049-.169-.095-.252-.145-.528-.32-1.068-.606-1.573-.962a4.241,4.241,0,0,1-.605-.474c-.114-.107-.224-.219-.329-.335q-.079-.087-.154-.177a1.107,1.107,0,0,0-.074-.091,9.5,9.5,0,0,1-.947-1.589,36.324,36.324,0,0,1-1.6-3.631,9.992,9.992,0,0,1-.535-2c-.095-.654-.065-1.311-.217-1.957a.035.035,0,0,0,0-.007,17.521,17.521,0,0,1,1.819-1.082c.38-.2.767-.383,1.163-.544a12.812,12.812,0,0,1,1.371-.407,42.54,42.54,0,0,1,5.293-1.214,31.9,31.9,0,0,1,6.165-.022c2.164.1,4.321.314,6.478.516q3.154.295,6.308.594c0,.018-.01.036-.014.054l-.294.044Zm-37,3.46a29.294,29.294,0,0,1,.124,3.327,18.9,18.9,0,0,1-.277,3.222,3.924,3.924,0,0,1-1.279,2.522,11.676,11.676,0,0,1-2.6,1.567,11.939,11.939,0,0,1-3.107,1,20.747,20.747,0,0,1-3.244.21c-1.191.01-2.382.014-3.574.029-1.245.016-2.489.091-3.735.1a11.68,11.68,0,0,1-2.865-.272.685.685,0,0,0-.336-.17c-.981-.175-2.043-.326-2.573-1.2a12.588,12.588,0,0,1-1.246-3.391c-.139-.548-.257-1.1-.36-1.658a.808.808,0,0,0,.158-.257,2.55,2.55,0,0,0,.063-.923c0-.286,0-.573-.007-.859-.016-.551-.026-1.1-.018-1.654s.031-1.1.031-1.652c0-.217.01-.433,0-.648.011-.105.019-.211.021-.316l.028-1.125c1.541-.308,3.06-.71,4.617-.951a19.468,19.468,0,0,1,2.369-.27c.845-.026,1.693,0,2.537-.039l1.444-.073-.3.077a14.024,14.024,0,0,0-4.4,1.983,14.938,14.938,0,0,0-3.947,3.783c-.284.415.342.874.685.529a22.7,22.7,0,0,1,3.395-2.935,26.462,26.462,0,0,1,3.992-2.111,6.1,6.1,0,0,1,4.805-.218,8.545,8.545,0,0,1,1.853,1.03,18.136,18.136,0,0,1,1.4,1.222c.4.375.779.762,1.158,1.154-.055-.026-.11-.053-.166-.078-.637-.288-1.32-.43-1.954-.718a16.813,16.813,0,0,0-2.939-1.064,3.676,3.676,0,0,0-1.513-.261h-.089a8.354,8.354,0,0,0-2.959.271,8.522,8.522,0,0,0-1.66.576,10.891,10.891,0,0,0-1.452.931,22.6,22.6,0,0,0-2.993,2.778c-.4.435.249,1.091.653.653q.46-.5.939-.981a6.016,6.016,0,0,1,2.65-.273,17.9,17.9,0,0,0,1.85-.048c.618-.019,1.235-.069,1.852-.109a34.884,34.884,0,0,1,6.328.078,8.806,8.806,0,0,1,2.963.737.613.613,0,0,0,.918-.435.565.565,0,0,0,.188-.9,29.126,29.126,0,0,0-2.994-2.717,16.365,16.365,0,0,0-3.527-2.286,14.829,14.829,0,0,0-2.1-.759,27.34,27.34,0,0,1,5.865.45,22.681,22.681,0,0,1,2.586.69q.651.216,1.288.47l.028.012a.731.731,0,0,0,.4.209c.067.012.126.026.182.041s.115.051.172.078c.029.013.057.027.086.041a1.014,1.014,0,0,0,.312.393A4.259,4.259,0,0,1,1147,534.631Zm-22.806-28.478a13.135,13.135,0,0,0,2.983.112,12.629,12.629,0,0,0,3.932-.823q1.213-.511,2.425-1.025l.4-.168.108-.046c-.151.064.252-.109.308-.134l.921-.411,1.558-.7a1.056,1.056,0,0,0,.428-.116c.205-.106.4-.224.6-.346q4.842-2.173,9.664-4.393c3.334-1.54,6.663-3.094,9.944-4.747q.98-.494,1.953-1l.268-.142a6.246,6.246,0,0,1,2.809-.309,7.891,7.891,0,0,1,3.775,1.649c.529.394,1.065-.425.671-.87a6.313,6.313,0,0,0-4.218-1.943c.057-.022.114-.045.171-.065a6.365,6.365,0,0,1,3.417-.389,4.2,4.2,0,0,1,2.368,1.45,3.259,3.259,0,0,1,.591,1.255c.115.523.8.332.858-.116.309-2.416-2.109-4.08-4.243-4.375-2.733-.378-5.227,1.159-7.552,2.37-3.09,1.61-6.239,3.11-9.383,4.609-1.223.583-2.45,1.158-3.677,1.734,2.073-1.526,4.144-3.053,6.245-4.541a59.636,59.636,0,0,1,7.052-4.5,13.279,13.279,0,0,1,7.576-1.752,5.7,5.7,0,0,1,3.267,1.656,8.113,8.113,0,0,1,1.233,1.53,7.319,7.319,0,0,1,.454.841c.023.052.052.1.079.146a.555.555,0,0,0,.092.384,1.906,1.906,0,0,0,.315.319.41.41,0,0,0,.307.214,12.8,12.8,0,0,0,1.923.729,20.051,20.051,0,0,1,2.136.982,29.727,29.727,0,0,1,3.959,2.5c.266.2.395.3.68.529s.578.473.862.716q.727.625,1.425,1.285c.749.707,1.469,1.443,2.193,2.175a3.443,3.443,0,0,0,1.113.893l.064.019a13.846,13.846,0,0,0-1.154,8.587,26.53,26.53,0,0,0,3.158,8.168,39.96,39.96,0,0,1,1.9,3.877,16.706,16.706,0,0,1,1.04,4.093,49.716,49.716,0,0,1,.271,6.4,28.551,28.551,0,0,0-4.276-3.072,1.07,1.07,0,0,0-.556-.136,1.2,1.2,0,0,0-.6-.218c-4.365-.388-8.734-.892-13.111-1.121a25.916,25.916,0,0,0-3.24-.006c-1.078.078-2.156.169-3.232.26a18.528,18.528,0,0,0-5.707,1.3,16.419,16.419,0,0,0-1.98,1.035c-.144.043-.286.1-.421.143a12.482,12.482,0,0,0-1.3.556c-.367.179-.726.368-1.085.561a1.045,1.045,0,0,0-.25-.106,3.735,3.735,0,0,0-1.155-.009c-.45.024-.9.062-1.352.061-.852,0-1.712-.1-2.561-.064-.878.033-1.748.107-2.622.19a2.374,2.374,0,0,0-.647-.5l-.04-.023-.008,0a11.243,11.243,0,0,0-1.191-.52,22.61,22.61,0,0,0-2.467-.857,23.7,23.7,0,0,0-5.357-.87c-1.829-.084-3.677.03-5.5.121s-3.612.389-5.414.643a18.694,18.694,0,0,0-5.806,1.542,1.248,1.248,0,0,0-.448.023l-.022,0-.087.011c-.055,0-.109,0-.164,0q-.343,0-.686-.024c-.284-.016-.568-.021-.852-.027a1.1,1.1,0,0,0-1.244.234,7.447,7.447,0,0,0-.585.773c-.055.074-.107.151-.162.226,0-.041,0-.083,0-.124.02-2.525.167-5.048.409-7.561.24-2.495.57-4.983.941-7.461a33.414,33.414,0,0,1,.579-3.372,13.86,13.86,0,0,1,1.108-2.881,17.981,17.981,0,0,1,1.842-2.9,11.942,11.942,0,0,1,1.024-1.16C1123.557,506.808,1123.859,506.465,1124.193,506.153Zm7.419,28.794a3.431,3.431,0,0,0-.154.766,1.432,1.432,0,0,0,.042.474,8.258,8.258,0,0,0-1.247.167c-.426.1-.888.164-1.338.26.089-.077.177-.156.268-.231a14.006,14.006,0,0,1,2.5-1.6A1.411,1.411,0,0,0,1131.612,534.948Zm6.541.309a1.524,1.524,0,0,0-.166-.445c.4.151.78.318,1.142.495a6.272,6.272,0,0,1,1.252.88c-.76-.081-1.524-.119-2.283-.135A1.454,1.454,0,0,0,1138.153,535.257Zm-24.291-9.362c.071-1.661.235-3.35.461-4.925.134-.937.212-1.659.358-2.591q.2-1.292.456-2.576a62.263,62.263,0,0,1,6.583-18.306q1.107-1.988,2.386-3.875.63-.926,1.3-1.827c.455-.613.782-1.03,1.312-1.667a39.553,39.553,0,0,1,3.032-3.262c.549-.526,1.113-1.036,1.7-1.523.618-.517,1.049-.852,1.676-1.306a26.25,26.25,0,0,1,4.086-2.482,14.3,14.3,0,0,1,4.7-1.266,38.342,38.342,0,0,1,5.274-.02c1.376.062,2.752.114,4.128.181,1.5.072,2.991.158,4.485.27,1.52.114,3.038.1,4.557.275a44.322,44.322,0,0,1,8.273,1.616,8.327,8.327,0,0,0,.8.257,63.876,63.876,0,0,1,9.975,5.446,38.233,38.233,0,0,1,8.873,7.911,12.568,12.568,0,0,1,2.48,5.185c-.189-.04-.378-.076-.555-.12-.279-.069-.558-.135-.837-.2a3.079,3.079,0,0,0-.295-.733,10.486,10.486,0,0,0-1.257-1.554c-.521-.607-1.076-1.169-1.561-1.808s-.925-1.275-1.363-1.928a.21.21,0,0,0-.362.212,35.979,35.979,0,0,0,2.178,3.558,13.185,13.185,0,0,0,1.293,1.582,4.668,4.668,0,0,1,.357.435c-.459-.1-.917-.2-1.379-.288a1.511,1.511,0,0,0-.077-.172,3.062,3.062,0,0,0-.349-.436l-.171-.209c.142.175-.174-.2-.226-.256-.686-.748-1.365-1.5-2.073-2.228a29.929,29.929,0,0,0-6.788-5.421,24.445,24.445,0,0,0-2.634-1.249,6.279,6.279,0,0,0-2.461-.689c-.054-.16-.121-.316-.184-.466a8.084,8.084,0,0,0-.93-1.673,7.283,7.283,0,0,0-2.852-2.472c-2.651-1.161-5.924-.527-8.513.51a40.445,40.445,0,0,0-7.451,4.26q-3.809,2.569-7.56,5.219c-1.388.98-2.775,1.96-4.171,2.929q-1.061.737-2.119,1.478c-.775.543-1.586,1.049-2.3,1.667a.721.721,0,0,0-.144.177c-1.6.737-3.208,1.476-4.8,2.232l-.767.363c-.062.029-.123.063-.187.088l-.035.016c-.018.007-.036,0,.04-.026-.2.074-.4.132-.6.2a11.614,11.614,0,0,1-6.759.379,8.989,8.989,0,0,1-1.17-.419.529.529,0,0,0-.7.184.516.516,0,0,0,.184.7,10.67,10.67,0,0,0,1.493.565,11.627,11.627,0,0,0-3.166,3.717,19.756,19.756,0,0,0-1.469,3.051,17.432,17.432,0,0,0-.981,3.2,99.93,99.93,0,0,0-1.617,15.646q-.036,2.005.069,4-.309.544-.592,1.1a4.063,4.063,0,0,0-.445-.289,3.692,3.692,0,0,0-.454-.214C1113.887,532.655,1113.718,529.274,1113.862,525.9Zm5.228,42.42a3.034,3.034,0,0,1-1.3-.914,6.838,6.838,0,0,1-1.057-3.274,15.54,15.54,0,0,0-.386-1.887,12.036,12.036,0,0,0-.895-2.083,31.125,31.125,0,0,1-1.62-4.043c-1.017-2.925-2.127-5.838-2.939-8.828a24.078,24.078,0,0,1-.818-4.373,16.916,16.916,0,0,1-.051-2.513,5.614,5.614,0,0,0,.759-.443,2.213,2.213,0,0,1,.866-.3,2.954,2.954,0,0,1,.5-.022c.012,0,.06.009.1.019a.419.419,0,0,1,.049.017l.013.007a1.363,1.363,0,0,0,.128.077l.006,0,.041.034a2.914,2.914,0,0,1,.269.288c.014.021.03.041.044.062.039.059.079.117.116.178.083.134.158.273.228.415.03.06.059.122.087.183.008.018.051.118.062.143.059.147.116.3.168.445.1.3.2.6.277.91s.156.625.221.941a3.236,3.236,0,0,0,.222.856.679.679,0,0,0,.757.308.706.706,0,0,0,.492-.647,2.689,2.689,0,0,0-.136-.861q-.1-.455-.231-.9a10.866,10.866,0,0,0-.786-2.039,3.324,3.324,0,0,0-1.311-1.472,2.882,2.882,0,0,0-2.453.167c-.08.037-.157.081-.233.125.021-.075.039-.152.063-.226a2.444,2.444,0,0,1,2.812-1.574,3.3,3.3,0,0,1,2.249,2,7.692,7.692,0,0,0,.278.97c.1.372.215.742.3,1.118a9.149,9.149,0,0,1,.171,1.1c.031.292.016.626.07.929-.023,1.452.019,2.907.1,4.349a.828.828,0,0,0-.15.111,6.267,6.267,0,0,0-1.156,1.7,8.346,8.346,0,0,0-.747,1.972,7.758,7.758,0,0,0,.105,4.047.456.456,0,0,0,.891-.121,10.546,10.546,0,0,1,.493-3.516,9.38,9.38,0,0,1,.658-1.564c.026-.047.056-.089.083-.135.209,2.588.5,5.17.883,7.738q.694,4.626,1.817,9.173.185.741.379,1.482A3.368,3.368,0,0,1,1119.09,568.315Zm-6.794-28.648c-.029-.013-.033-.019,0,0Zm75.763,34.6q-.679,1.114-1.417,2.19-.359.523-.732,1.036-.191.262-.385.522l-.166.22-.125.164a42.538,42.538,0,0,1-6.425,6.655q-.415.344-.839.676c-.034.027-.236.189-.1.077s-.093.071-.129.1q-.218.166-.439.329-.836.619-1.7,1.195-1.681,1.116-3.467,2.063c-.577.306-1.159.6-1.754.872-.287.13-.575.256-.864.38h0l-.183.076q-.222.091-.444.18c-1.12.447-2.26.841-3.412,1.2a49.434,49.434,0,0,1-6.4,1.49c-.486.082-.974.154-1.462.224l-.05.007-.362.045q-.343.042-.686.078-1.288.137-2.582.2c-1.358.07-2.719.084-4.077.031-.563-.022-1.125-.06-1.686-.109-.555-.088-1.106-.194-1.652-.325a25.741,25.741,0,0,1-3.152-1q-.552-.21-1.1-.438c-.077-.032-.155-.064-.232-.1l-.079-.035q-.285-.123-.567-.25a38.447,38.447,0,0,1-4.655-2.5q-1.218-.766-2.375-1.623l-.278-.208-.162-.124c-.191-.149-.381-.3-.569-.451q-.591-.478-1.161-.982a41.46,41.46,0,0,1-4.393-4.64q-.251-.3-.495-.609l-.21-.267c-.011-.016-.17-.224-.193-.256q-.517-.69-1-1.406c-.665-.985-1.285-2-1.851-3.047a33.916,33.916,0,0,1-1.547-3.241,36.3,36.3,0,0,1-1.329-3.994q-1.258-4.467-2.067-9.045c-.539-3.012-.938-6.047-1.217-9.094q-.212-2.316-.335-4.639c-.023-.432-.054-.863-.088-1.3.054-1.05.12-2.1.128-3.149a12.824,12.824,0,0,0-.094-1.488,7.552,7.552,0,0,0-.042-1.842q-.031-.429-.053-.859c.123-.175.243-.351.354-.531.322-.523.552-1.1.857-1.63a.654.654,0,0,0,.364-.079c.047-.027.1-.053.145-.076l.04-.019c-.077.038.009,0,.026-.008.077-.028.158-.051.238-.074.162.132.325.263.489.394a4.079,4.079,0,0,0-.074,1.126c.018.7.088,1.389.17,2.083a28.693,28.693,0,0,0,.728,4.067,18.046,18.046,0,0,0,.646,1.97,6.947,6.947,0,0,0,.96,1.842,5.026,5.026,0,0,0,3.3,1.518,1.041,1.041,0,0,0,.751-.148,22.658,22.658,0,0,0,6.224.242c1.311-.031,2.621-.113,3.932-.172,1.243-.056,2.493,0,3.729-.168a11.85,11.85,0,0,0,3.472-1.141,12.175,12.175,0,0,0,2.959-1.879,5.936,5.936,0,0,0,1.606-2.939,21.533,21.533,0,0,0,.746-3.765,13.141,13.141,0,0,0,.076-1.422.383.383,0,0,0,.067-.066,4.881,4.881,0,0,1,.607-.581,6.592,6.592,0,0,1,.554-.506,3.4,3.4,0,0,1,1.612-.614,4.819,4.819,0,0,1,1.808.126,1.618,1.618,0,0,1,1.065.753,1.038,1.038,0,0,0,.421.505c.017.157.036.311.056.46a14.513,14.513,0,0,0,.963,3.461c.823,2.074,1.9,4.423,4.054,5.4a6.334,6.334,0,0,0,1.613.5,2.067,2.067,0,0,0,1.326.508c.612.087,1.225.135,1.842.179,1.109.079,2.216.166,3.327.215a49.915,49.915,0,0,0,6.711-.1,25.5,25.5,0,0,0,3.317-.5,11.468,11.468,0,0,0,2.9-.977,4.5,4.5,0,0,0,2-2.061,11.173,11.173,0,0,0,.742-3.113q.28-1.93.474-3.871c.064-.651.133-1.3.168-1.958.017-.326.016-.654.019-.98a2.324,2.324,0,0,0-.054-.487l.834-.029a2.328,2.328,0,0,0,.506-.046,1.013,1.013,0,0,0,.436-.245,4.625,4.625,0,0,0,.465.407c.421.339.848.662,1.285.979.794.575,1.557,1.187,2.336,1.782.319.244.635.493.949.743a18.253,18.253,0,0,0,1.839,7.41.617.617,0,0,0,.424.339l.016.013c-.034.208-.064.418-.084.634-.055.588-.052,1.187-.067,1.778-.028,1.152-.008,2.3.007,3.456.029,2.327.127,4.653.053,6.98a31.28,31.28,0,0,1-.813,6.61,28.959,28.959,0,0,1-2.211,5.766A52.661,52.661,0,0,1,1188.059,574.271Zm16.122-28.526a31.178,31.178,0,0,1-2.315,9.55c-.621,1.518-1.407,2.952-2.167,4.4a38.705,38.705,0,0,0-2.075,4.5c-.152.408-.3.817-.458,1.223-.082.212-.16.425-.242.636s-.145.368-.2.481a10.472,10.472,0,0,1-.6,1.137c-.054.087-.109.173-.167.258-.014.021-.111.156-.125.178-.1.125-.206.245-.317.36s-.255.253-.392.371c.013-.011-.1.079-.147.119l-.055.041c-.059.041-.118.081-.178.12a5.092,5.092,0,0,1-.462.267c-.041.021-.084.041-.126.06-.008,0-.159.065-.189.075a4.039,4.039,0,0,1-.549.148c-.027.005-.085.012-.122.015-.064,0-.129.009-.193.01l.022-.049c.035-.079.07-.159.1-.238l.059-.14q-.059.142-.011.028.112-.264.224-.529c.2-.48.4-.962.587-1.447a24.65,24.65,0,0,0,1.465-6.824,84.273,84.273,0,0,0-.527-14.024c-.048-.57-.07-1.145-.131-1.714-.045-.417-.115-.819-.194-1.223a21.915,21.915,0,0,1,.544-2.265,8.113,8.113,0,0,1,.435-1.117,6.391,6.391,0,0,1,.312-.564c.062-.1.12-.191.17-.284.076-.067.155-.133.226-.206.259-.264.488-.553.755-.811a5.284,5.284,0,0,1,1.528-1.082,3.121,3.121,0,0,1,2.451,0,3.526,3.526,0,0,0-1.152.536,7.372,7.372,0,0,0-1.987,2.4c-.282.49-.515,1.009-.766,1.515a3.823,3.823,0,0,0-.681,1.777.443.443,0,0,0,.657.377c.47-.227.718-.77.991-1.189q.434-.667.868-1.333a9.705,9.705,0,0,1,1.475-2.013,2.67,2.67,0,0,1,.418-.312,2.326,2.326,0,0,1,.225-.123c.021-.01.024-.012.023-.012l.059-.019a2.227,2.227,0,0,1,.915-.144,1.453,1.453,0,0,1,.358.033c.07.016.141.031.21.051.005,0,.164.056.155.048a1.133,1.133,0,0,1,.264.157C1204.4,540.857,1204.346,543.466,1204.181,545.746Z" transform="translate(-1108.506 -478.096)"/><path d="M1402.717,919.017Z" transform="translate(-1318.403 -792.66)"/><path d="M1284.291,641.693c.6-.183,1.214-.312,1.815-.493s1.208-.352,1.814-.524c1.215-.346,2.428-.708,3.631-1.09s2.423-.686,3.646-1c.608-.158,1.2-.3,1.8-.506.5-.17,1.033-.3,1.527-.495a6.887,6.887,0,0,1,3.045.651c.994.473,1.932,1.055,2.951,1.476.541.223.92-.573.547-.94a10.858,10.858,0,0,0-6.46-2.61,6.6,6.6,0,0,0-1.927-.424,7.721,7.721,0,0,0-2.093.115,23.532,23.532,0,0,0-3.709,1.025,25.031,25.031,0,0,0-3.725,1.629c-.555.295-1.1.616-1.641.934-.587.344-1.13.742-1.7,1.106A.633.633,0,0,0,1284.291,641.693Z" transform="translate(-1233.361 -590.536)"/><path d="M1160,643.332a9.135,9.135,0,0,1,1.366-.48c.5-.185.993-.366,1.507-.5.946-.256,1.912-.461,2.878-.629,1.065-.054,2.119-.013,3.189-.011a21.885,21.885,0,0,1,3.352.213,13.832,13.832,0,0,1,2.986.844,11.462,11.462,0,0,1,1.4.605,11.953,11.953,0,0,1,1.506.98,1.076,1.076,0,0,0,1.3-1.688,8.11,8.11,0,0,0-3.053-1.743,10.937,10.937,0,0,0-2.7-.458l-.459-.17a12.469,12.469,0,0,0-3.707-.932,20.168,20.168,0,0,0-3.637.3,16.951,16.951,0,0,0-3.357.714,12.051,12.051,0,0,0-1.805.763,9.312,9.312,0,0,0-1.5,1.243C1158.733,642.837,1159.417,643.661,1160,643.332Z" transform="translate(-1144.582 -593.138)"/><path d="M1208.01,789.858a.643.643,0,0,0-.322-1.189,2.618,2.618,0,0,0-1.588.818,3.292,3.292,0,0,0-.977,1.445,5.327,5.327,0,0,0-.093,1.816,16.725,16.725,0,0,0,.229,1.969c.062.352.544.224.577-.078.061-.561.121-1.119.17-1.681a9.62,9.62,0,0,1,.173-1.5,1.978,1.978,0,0,1,.707-1,2.715,2.715,0,0,1,.5-.336C1207.589,790.012,1207.817,789.979,1208.01,789.858Z" transform="translate(-1177.346 -699.666)"/><path d="M1310.092,785.311a.735.735,0,0,0-.878.5.72.72,0,0,0,.5.878,1.9,1.9,0,0,1,1.015.488,3.061,3.061,0,0,1,.747,1.079,7.052,7.052,0,0,1,.411,1.521c.057.272.123.54.172.814.026.143.042.289.071.431a3.479,3.479,0,0,0,.166.45c.054.154.3.226.384.05.064-.135.161-.265.212-.4a3.43,3.43,0,0,0,.1-.479,6.3,6.3,0,0,0,.15-1.081,4.936,4.936,0,0,0-.423-2.074A3.736,3.736,0,0,0,1310.092,785.311Z" transform="translate(-1251.68 -697.26)"/><path d="M1418.6,715.565a.38.38,0,0,0-.691.291,11.731,11.731,0,0,0,.337,1.257,4.9,4.9,0,0,1,.271,1.169,6.433,6.433,0,0,1-.305,2.332c-.239.747-.537,1.475-.76,2.226a7.021,7.021,0,0,1-.317,1.3c-.209.407-.472.785-.674,1.194a.311.311,0,0,0,.536.314c.271-.421.456-.9.75-1.308.26-.361.668-.571.949-.913a6.048,6.048,0,0,0,1.321-2.506,4.815,4.815,0,0,0-.251-2.806A11.849,11.849,0,0,0,1418.6,715.565Z" transform="translate(-1328.18 -647.385)"/><path d="M1175.942,521.78q2.317-1.335,4.636-2.664c.35-.2.7-.413,1.061-.587.43-.206.876-.383,1.3-.6.778-.406,1.532-.866,2.3-1.3,3.046-1.72,6.064-3.486,9.095-5.233.776-.448,1.568-.872,2.356-1.3.186-.1.377-.192.564-.291s.34-.248.53-.34.4-.158.6-.238.366-.23.577-.306a.3.3,0,0,0-.16-.583c-.223.035-.429-.011-.652.035-.165.034-.329.085-.491.132-.414.12-.817.167-1.224.322a15.312,15.312,0,0,0-2.17,1.04c-1.486.85-2.937,1.766-4.394,2.667q-2.245,1.387-4.478,2.792l-2.293,1.446c-.768.484-1.459,1.077-2.228,1.556q-2.543,1.582-5.09,3.16A.168.168,0,0,0,1175.942,521.78Z" transform="translate(-1156.438 -499.67)"/><path d="M1203.817,693.728c-.164.145-.416.22-.593.361a5.177,5.177,0,0,0-.421.376c-.293.292-.6.571-.916.835a17.828,17.828,0,0,1-2.01,1.468,11.612,11.612,0,0,1-2.211,1.124,17.292,17.292,0,0,1-2.437.668.2.2,0,0,0,.054.4,11.165,11.165,0,0,0,2.628-.389,15.934,15.934,0,0,0,2.51-.869,11.1,11.1,0,0,0,2.3-1.408,12.92,12.92,0,0,0,1.01-.9,3.44,3.44,0,0,0,.425-.515c.138-.2.172-.453.3-.659C1204.7,693.812,1204.15,693.433,1203.817,693.728Z" transform="translate(-1170.274 -631.858)"/><path d="M1313.259,697.44a5.142,5.142,0,0,1-2.413.216,15,15,0,0,1-2.442-.427,7.626,7.626,0,0,1-2-.821,4.868,4.868,0,0,1-.825-.617c-.284-.266-.521-.7-.928-.767a.592.592,0,0,0-.733.559c-.05.468.4.862.714,1.155a6.552,6.552,0,0,0,1,.761,7.051,7.051,0,0,0,2.442.925,11.166,11.166,0,0,0,2.771.115,6.654,6.654,0,0,0,2.646-.547C1313.792,697.84,1313.58,697.312,1313.259,697.44Z" transform="translate(-1247.914 -632.848)"/></g></g></svg>