<svg xmlns="http://www.w3.org/2000/svg" width="163.399" height="41" viewBox="0 0 163.399 41"><defs><style>.a{fill:#111;}.b{fill:#ed731b;}</style></defs><g transform="translate(-112.923 -693.288)"><g transform="translate(143.264 693.289)"><path class="a" d="M192.515,734.288a20.5,20.5,0,1,1,20.5-20.5A20.523,20.523,0,0,1,192.515,734.288Zm0-31.758a11.258,11.258,0,1,0,11.258,11.258A11.27,11.27,0,0,0,192.515,702.531Z" transform="translate(-172.016 -693.289)"/></g><g transform="translate(187.857 693.289)"><path class="a" d="M279.368,734.288a20.5,20.5,0,1,1,20.5-20.5A20.523,20.523,0,0,1,279.368,734.288Zm0-31.758a11.258,11.258,0,1,0,11.258,11.258A11.27,11.27,0,0,0,279.368,702.531Z" transform="translate(-258.869 -693.289)"/></g><circle class="b" cx="4.621" cy="4.621" r="4.621" transform="translate(267.08 725.046)"/><path class="a" d="M128.887,693.288v24.469a7.3,7.3,0,0,1-7.288,7.289h-4.847l-3.828,9.242H121.6a16.549,16.549,0,0,0,16.53-16.531V693.288Z"/><g transform="translate(233.991 693.289)"><path class="a" d="M357.964,734.288h-9.242v-41h16.56a16.531,16.531,0,0,1,3.553,32.676l-4.514.991-1.981-9.027,4.514-.991a7.2,7.2,0,0,0,2.694-1.209,7.288,7.288,0,0,0-4.266-13.2h-7.318Z" transform="translate(-348.722 -693.289)"/></g></g></svg>